<?xml version="1.0" standalone="no"?>
<!DOCTYPE svg PUBLIC "-//W3C//DTD SVG 20010904//EN"
 "http://www.w3.org/TR/2001/REC-SVG-20010904/DTD/svg10.dtd">
<svg version="1.0" xmlns="http://www.w3.org/2000/svg"
 width="2026.000000pt" height="2026.000000pt" viewBox="0 0 2026.000000 2026.000000"
 preserveAspectRatio="xMidYMid meet">
<metadata>
Created by potrace 1.11, written by Peter Selinger 2001-2013
</metadata>
<g transform="translate(0.000000,2026.000000) scale(0.100000,-0.100000)"
fill="#000000" stroke="none">
<path d="M9778 20256 c-1 -2 -64 -7 -138 -10 -74 -4 -148 -9 -165 -11 -16 -2
-68 -6 -115 -10 -47 -3 -98 -8 -115 -10 -16 -2 -52 -7 -80 -10 -69 -8 -205
-25 -235 -30 -14 -3 -46 -7 -71 -10 -25 -3 -83 -12 -130 -20 -46 -9 -122 -22
-168 -31 -47 -8 -105 -19 -130 -25 -25 -6 -57 -13 -71 -15 -21 -4 -133 -30
-165 -38 -11 -3 -52 -13 -110 -27 -317 -74 -941 -280 -1210 -399 -22 -10 -94
-41 -160 -70 -118 -51 -552 -264 -650 -318 -465 -259 -801 -478 -1190 -775
-71 -54 -121 -93 -125 -97 -3 -3 -27 -23 -55 -45 -27 -22 -59 -47 -70 -56 -42
-34 -252 -215 -295 -254 -24 -22 -71 -65 -105 -95 -97 -88 -493 -487 -585
-589 -47 -52 -90 -99 -95 -105 -15 -16 -178 -206 -201 -234 -10 -13 -29 -36
-42 -50 -12 -15 -42 -52 -65 -82 -23 -30 -45 -57 -48 -60 -10 -9 -207 -268
-225 -296 -10 -16 -21 -31 -24 -34 -14 -12 -200 -282 -200 -291 0 -5 -4 -9
-10 -9 -5 0 -10 -6 -10 -14 0 -8 -4 -16 -8 -18 -7 -2 -154 -230 -218 -335
-121 -201 -164 -276 -286 -498 -41 -73 -265 -526 -313 -630 -72 -157 -238
-561 -290 -705 -81 -227 -183 -535 -234 -710 -31 -108 -71 -254 -85 -310 -2
-8 -14 -53 -26 -100 -12 -47 -24 -96 -26 -110 -3 -14 -7 -31 -9 -38 -7 -20
-52 -225 -79 -362 -29 -142 -50 -262 -72 -395 -2 -16 -9 -55 -14 -85 -5 -30
-11 -71 -14 -90 -13 -95 -36 -271 -41 -320 -4 -30 -8 -66 -10 -80 -2 -14 -6
-59 -10 -100 -4 -41 -8 -91 -10 -110 -3 -19 -7 -73 -10 -120 -4 -47 -8 -101
-10 -120 -27 -276 -27 -1234 0 -1540 3 -30 7 -86 10 -125 2 -38 6 -90 9 -115
3 -25 8 -74 11 -110 3 -36 8 -81 10 -100 6 -49 17 -141 20 -165 1 -11 5 -45 9
-75 4 -30 9 -66 11 -80 2 -14 6 -47 10 -75 3 -27 8 -57 10 -65 3 -13 8 -43 20
-125 3 -23 43 -248 50 -285 3 -14 14 -72 25 -130 12 -58 37 -174 57 -259 19
-85 37 -162 38 -170 2 -9 4 -16 5 -16 1 0 3 -7 5 -15 9 -49 72 -279 115 -425
28 -93 53 -179 55 -191 3 -12 12 -41 21 -65 8 -24 17 -51 19 -59 2 -8 29 -87
60 -175 31 -88 60 -171 64 -185 32 -101 206 -523 306 -745 15 -33 36 -80 47
-105 58 -130 273 -549 340 -663 15 -26 28 -50 28 -52 0 -2 34 -61 75 -130 41
-70 75 -131 75 -135 0 -5 3 -10 8 -12 4 -1 28 -36 52 -77 25 -40 50 -81 55
-90 6 -9 32 -50 60 -91 27 -41 56 -87 65 -101 24 -42 216 -315 277 -395 12
-16 43 -58 70 -94 26 -36 53 -72 60 -80 7 -8 60 -76 120 -150 103 -130 186
-230 243 -295 15 -16 49 -55 75 -85 146 -169 461 -491 655 -670 62 -58 121
-112 130 -120 58 -56 310 -267 440 -369 85 -67 163 -128 172 -136 16 -13 353
-252 392 -278 10 -6 29 -20 41 -30 13 -9 28 -17 34 -17 6 0 11 -4 11 -10 0 -5
4 -10 10 -10 5 0 42 -22 82 -49 257 -171 793 -464 1108 -603 19 -9 55 -25 80
-36 381 -170 831 -329 1240 -439 52 -14 102 -26 110 -28 8 -2 69 -17 135 -33
66 -16 138 -33 160 -37 22 -5 45 -9 50 -10 39 -9 231 -46 282 -55 35 -5 75
-13 90 -15 16 -3 46 -7 68 -10 22 -3 51 -7 65 -10 14 -3 45 -8 70 -11 25 -3
58 -7 75 -10 16 -2 57 -6 90 -9 33 -3 67 -8 75 -10 13 -3 84 -10 200 -20 330
-28 1145 -28 1435 0 22 2 69 7 105 10 36 4 79 8 95 10 17 2 57 6 90 10 33 3
74 8 90 11 17 2 46 6 65 8 40 5 71 10 235 37 312 51 703 142 1015 236 123 37
423 134 435 141 6 4 15 7 20 9 22 4 317 119 370 143 11 5 48 21 83 35 305 125
731 343 1082 553 183 110 542 347 635 420 6 4 40 29 77 55 36 26 72 53 80 59
7 7 40 33 73 58 33 24 85 64 115 88 30 25 73 59 94 76 22 17 44 36 50 41 6 6
58 50 116 99 174 146 283 249 531 496 379 379 622 657 923 1059 129 171 316
438 316 450 0 5 3 11 8 13 4 2 36 48 71 103 35 55 78 123 96 150 186 289 461
801 627 1165 83 183 206 472 238 560 7 19 18 49 25 65 59 139 211 593 290 863
51 178 138 513 148 572 3 14 10 43 15 65 10 37 74 350 87 420 11 66 36 211 40
235 14 85 25 161 30 200 3 25 7 59 10 75 11 70 19 134 30 240 3 28 8 66 10 85
13 116 20 191 30 340 4 58 8 121 10 140 25 266 25 1150 0 1430 -2 25 -7 86
-10 135 -3 50 -8 106 -10 125 -3 19 -7 62 -10 95 -10 124 -14 161 -19 190 -2
17 -8 59 -11 95 -4 36 -9 74 -11 84 -2 11 -6 42 -9 70 -3 28 -10 80 -16 116
-6 36 -12 81 -15 100 -2 19 -6 42 -9 50 -2 8 -7 35 -10 60 -3 25 -10 65 -15
90 -5 25 -16 86 -25 135 -9 50 -19 101 -22 115 -3 14 -7 35 -9 47 -15 120
-172 734 -254 998 -22 72 -42 137 -44 145 -17 61 -187 545 -206 585 -5 11 -21
52 -36 90 -14 39 -32 84 -39 100 -8 17 -38 89 -68 160 -107 255 -311 677 -411
853 -20 35 -36 66 -36 69 0 3 -9 17 -19 31 -10 15 -20 32 -21 37 -4 20 -313
539 -330 555 -3 3 -30 43 -61 90 -196 306 -552 776 -809 1070 -439 500 -957
984 -1445 1350 -33 25 -64 49 -70 53 -42 34 -309 221 -374 262 -9 6 -63 41
-121 79 -111 73 -306 192 -405 246 -232 129 -305 168 -453 241 -201 99 -369
175 -517 235 -60 25 -119 49 -130 54 -147 69 -787 280 -986 325 -9 2 -52 13
-95 24 -170 44 -474 108 -589 125 -23 4 -52 9 -65 11 -34 7 -215 34 -270 40
-25 3 -54 7 -65 9 -11 2 -49 7 -85 10 -36 4 -81 9 -100 11 -46 6 -186 18 -355
31 -63 5 -862 14 -867 10z"/>
</g>
</svg>
